REM MD5 88b3deb0331b7aba1684116c361d2d23
FILE "Interactive CD Sampler Pack Volume 2 (USA).bin" BINARY
  TRACK 01 MODE2/2352
    INDEX 01 00:00:00
  TRACK 02 AUDIO
    INDEX 00 57:41:45
    INDEX 01 57:43:45
  TRACK 03 AUDIO
    INDEX 00 59:43:69
    INDEX 01 59:45:69
  TRACK 04 AUDIO
    INDEX 00 60:48:15
    INDEX 01 60:50:15
  TRACK 05 AUDIO
    INDEX 00 62:54:33
    INDEX 01 62:56:33
  TRACK 06 AUDIO
    INDEX 00 63:16:57
    INDEX 01 63:18:57
REM LEADOUT 66:24:55
